# xmcd
#
# Track frame offsets: 
#        182
#        12565
#        22612
#        30920
#        42297
#        54325
#        64607
#        76387
#        86377
#        95137
#        104677
#        114605
#        127142
#        138097
#        147130
#        159710
#        167872
#        178235
#        190320
#        200990
#        210927
#        220342
#
# Disc length: 3066 seconds
#
# Revision: 2
# Processed by: cddbd v1.5.2PL0 Copyright (c) Steve Scherf et al.
# Submitted via: ExactAudioCopy v1.3
#
DISCID=390bf816
DTITLE=Johnny Cash - Get Rhythm - The Best Of The Sun Years
DYEAR=1995
DGENRE=Country
TTITLE0=I Walk The Line
TTITLE1=Get Rhythm
TTITLE2=Guess Things Happen That Way
TTITLE3=Big River
TTITLE4=Goodnight Irene
TTITLE5=The Ways Of A Woman In Love
TTITLE6=Thanks A Lot
TTITLE7=Hey Porter
TTITLE8=Katy Too
TTITLE9=I Forgot To Remember To Forget
TTITLE10=Ballad Of A Teenage Queen
TTITLE11=Folsom Prison Blues
TTITLE12=Cry, Cry, Cry
TTITLE13=Blue Train
TTITLE14=Give My Love To Rose
TTITLE15=The Wreck Of The Old '97
TTITLE16=You Win Again
TTITLE17=You're The Nearest Thing To Heaven
TTITLE18=Train Of Love
TTITLE19=I Could Never Be Ashamed Of You
TTITLE20=Down The Street To 301
TTITLE21=Rock Island Line
EXTD=
EXTT0=
EXTT1=
EXTT2=
EXTT3=
EXTT4=
EXTT5=
EXTT6=
EXTT7=
EXTT8=
EXTT9=
EXTT10=
EXTT11=
EXTT12=
EXTT13=
EXTT14=
EXTT15=
EXTT16=
EXTT17=
EXTT18=
EXTT19=
EXTT20=
EXTT21=
PLAYORDER=
